<svg width="40" height="40" viewBox="0 0 40 40" fill="none" xmlns="http://www.w3.org/2000/svg">
<path d="M33.1288 8.75C33.0468 8.75049 32.9654 8.73482 32.8894 8.70386C32.8134 8.67291 32.7442 8.62728 32.6858 8.5696C32.6274 8.51191 32.581 8.44328 32.5491 8.36764C32.5172 8.292 32.5006 8.21083 32.5001 8.12875C32.4926 6.89875 32.2001 5.635 31.4451 4.6175C30.7013 3.61625 29.4576 2.78625 27.4113 2.4925C27.2528 2.46299 27.1118 2.37332 27.0178 2.24226C26.9238 2.11119 26.8841 1.94887 26.9071 1.78923C26.93 1.62959 27.0137 1.48498 27.1408 1.38565C27.2679 1.28633 27.4284 1.23996 27.5888 1.25625C29.9163 1.58875 31.4776 2.565 32.4488 3.8725C33.4076 5.165 33.7413 6.715 33.7501 8.12125C33.7506 8.20333 33.7349 8.2847 33.704 8.36071C33.673 8.43673 33.6274 8.50591 33.5697 8.56429C33.512 8.62268 33.4434 8.66913 33.3677 8.70099C33.2921 8.73286 33.2109 8.74951 33.1288 8.75ZM29.3751 9.37875C29.3761 9.54451 29.4429 9.70309 29.5608 9.81959C29.6787 9.9361 29.8381 10.001 30.0038 10C30.1696 9.99901 30.3282 9.9322 30.4447 9.81429C30.5612 9.69638 30.6261 9.53701 30.6251 9.37125C30.6163 8.00625 30.2851 6.4475 29.3126 5.21625C28.3201 3.9575 26.7251 3.125 24.3751 3.125C24.2093 3.125 24.0504 3.19085 23.9332 3.30806C23.8159 3.42527 23.7501 3.58424 23.7501 3.75C23.7501 3.91576 23.8159 4.07473 23.9332 4.19194C24.0504 4.30915 24.2093 4.375 24.3751 4.375C26.4001 4.375 27.6088 5.075 28.3313 5.99C29.0738 6.93125 29.3676 8.185 29.3751 9.37875ZM5.6251 21.25C5.79086 21.25 5.94983 21.3158 6.06704 21.4331C6.18425 21.5503 6.2501 21.7092 6.2501 21.875C6.2501 23.1537 6.25885 24.2675 6.66885 25.2225C7.05385 26.1225 7.8326 26.9512 9.5726 27.5325C9.72391 27.5894 9.84728 27.7027 9.91682 27.8487C9.98635 27.9946 9.99664 28.1618 9.94552 28.3151C9.8944 28.4685 9.78585 28.5961 9.64266 28.6711C9.49947 28.7461 9.33278 28.7628 9.1776 28.7175C7.1676 28.0475 6.07135 27.0038 5.51885 25.715C5.0001 24.5025 5.0001 23.1425 5.0001 21.9363V21.8738C5.0001 21.708 5.06595 21.549 5.18316 21.4318C5.30037 21.3146 5.45934 21.25 5.6251 21.25ZM3.1001 23.7875C3.26586 23.7875 3.42483 23.8533 3.54204 23.9706C3.65925 24.0878 3.7251 24.2467 3.7251 24.4125C3.7251 26.8175 5.52635 30.0375 9.31635 30.0375C9.48211 30.0375 9.64108 30.1033 9.75829 30.2206C9.8755 30.3378 9.94135 30.4967 9.94135 30.6625C9.94135 30.8283 9.8755 30.9872 9.75829 31.1044C9.64108 31.2217 9.48211 31.2875 9.31635 31.2875C4.62885 31.2875 2.4751 27.2813 2.4751 24.4125C2.4751 24.2467 2.54095 24.0878 2.65816 23.9706C2.77537 23.8533 2.93434 23.7875 3.1001 23.7875ZM26.8613 8.5075C26.3063 7.2825 25.2888 6.69625 24.3038 6.5175C23.4504 6.36633 22.5711 6.47973 21.7838 6.8425C21.1988 7.12125 20.5538 7.73625 20.1563 8.59375C19.6214 8.32574 19.0325 8.18276 18.4342 8.17561C17.8359 8.16847 17.2438 8.29734 16.7026 8.5525L16.6876 8.56L16.6738 8.56625C15.9436 8.9407 15.3461 9.53071 14.9626 10.2563C14.4888 11.165 14.3526 12.3262 14.8751 13.6287L15.1001 14.1862C14.6001 14.2262 14.0588 14.3675 13.4876 14.6525C12.1238 15.33 10.8151 17.4525 12.1626 20.1562L12.1851 20.2013L12.2101 20.2437L12.4551 20.6462C11.8822 20.8847 11.3686 21.2456 10.9501 21.7038C10.3819 22.3213 10.0545 23.1225 10.0276 23.9613C10.0026 24.87 10.3288 25.7887 10.9751 26.6675C11.4026 27.25 12.0701 28.005 12.7001 28.6675C13.3026 29.3 13.9451 29.9263 14.3763 30.27L20.0851 35.4825L20.1001 35.4975L20.1163 35.5112C20.7751 36.0737 21.9201 36.8675 23.3126 37.5275C24.7001 38.185 26.4201 38.75 28.2038 38.75C30.4151 38.75 33.0226 37.8775 35.0901 36.145C37.1901 34.385 38.7501 31.72 38.7501 28.1938V28.1425C38.6876 26.63 38.3613 25.1825 38.0576 23.8337L37.8913 23.0875C37.5438 21.49 37.2763 19.9375 37.4088 18.19C37.4959 16.9611 37.5959 15.7331 37.7088 14.5062C37.7688 13.85 37.5513 12.95 37.0788 12.1687C36.5788 11.34 35.7138 10.5188 34.3863 10.2413L34.3751 10.2375C33.504 10.0776 32.6045 10.2112 31.8176 10.6175C30.8138 11.1463 30.0301 12.1562 29.8426 13.7175C29.8059 14.0208 29.7734 14.3046 29.7451 14.5687C29.5951 14.2846 29.4413 13.9867 29.2838 13.675C28.4676 12.0512 27.6338 10.2125 26.8738 8.535L26.8613 8.5075ZM20.5451 13.5038C20.7526 13.9588 20.9488 14.39 21.0863 14.6962C21.1543 14.8664 21.2286 15.034 21.3088 15.1988L21.3213 15.2225L21.3238 15.2262L21.3338 15.2437C21.9261 16.5569 22.581 17.8409 23.2963 19.0912C23.3796 19.2328 23.4899 19.3566 23.6209 19.4556C23.752 19.5545 23.9013 19.6267 24.0602 19.668C24.2192 19.7092 24.3847 19.7188 24.5474 19.6961C24.7101 19.6734 24.8666 19.6189 25.0082 19.5356C25.1498 19.4524 25.2736 19.3421 25.3726 19.211C25.4715 19.08 25.5437 18.9307 25.5849 18.7717C25.6262 18.6128 25.6358 18.4472 25.6131 18.2846C25.5903 18.1219 25.5358 17.9653 25.4526 17.8237C24.8776 16.845 24.1426 15.395 23.5188 14.01L23.4238 13.7987L23.3738 13.6863L23.3413 13.6038C23.2153 13.2901 23.0928 12.9751 22.9738 12.6587C22.7409 12.051 22.5271 11.4361 22.3326 10.815C22.2101 10.2838 22.3051 9.8775 22.4513 9.59C22.5288 9.43625 22.6213 9.31375 22.7088 9.22375C22.8001 9.13125 22.8638 9.09625 22.8638 9.09625C23.177 8.96285 23.5218 8.92165 23.8576 8.9775C24.0176 8.99867 24.1691 9.06188 24.2967 9.1607C24.4242 9.25951 24.5233 9.3904 24.5838 9.54L24.6088 9.5925C25.3613 11.2537 26.2126 13.13 27.0526 14.8C27.8838 16.4538 28.7651 18.0275 29.5776 18.9775C29.7157 19.1387 29.8925 19.2621 30.0915 19.3361C30.2904 19.41 30.505 19.4321 30.7148 19.4002C30.9247 19.3683 31.1229 19.2835 31.2909 19.1538C31.4589 19.0241 31.5912 18.8537 31.6751 18.6588C31.9013 18.1338 31.9726 17.51 32.0351 16.8737L32.0901 16.28C32.1451 15.685 32.2113 14.96 32.3251 14.0175C32.4201 13.23 32.7438 12.9575 32.9851 12.83C33.2622 12.692 33.5753 12.643 33.8813 12.69C34.3863 12.7963 34.7188 13.095 34.9388 13.4625C35.0538 13.65 35.1301 13.8475 35.1751 14.0175C35.1997 14.1044 35.2148 14.1936 35.2201 14.2838L35.1763 14.76C35.1138 15.4462 35.0826 15.7975 34.9163 18.0012C34.7551 20.1212 35.0876 21.9625 35.4488 23.6188C35.5088 23.8979 35.5693 24.17 35.6301 24.435C35.9301 25.775 36.1951 26.9625 36.2501 28.2188C36.2426 30.92 35.0701 32.9 33.4838 34.2287C31.8601 35.5875 29.8201 36.25 28.2038 36.25C26.9238 36.25 25.5813 35.835 24.3838 35.2675C23.2026 34.7088 22.2501 34.0425 21.7538 33.6225L16.0288 28.3938L15.9913 28.36L15.9538 28.33C15.6813 28.1175 15.1251 27.5888 14.5113 26.9438C13.9063 26.3088 13.3238 25.6438 12.9901 25.1875C12.5963 24.6525 12.5201 24.2675 12.5276 24.0312C12.5373 23.7866 12.6365 23.5539 12.8063 23.3775C13.1463 23 13.6513 22.8275 14.0063 22.8162C14.2913 23.1325 14.5863 23.435 14.8776 23.7238C15.3851 24.2263 15.9113 24.7112 16.4001 25.1612L16.4451 25.2025C16.9538 25.6725 17.4176 26.1 17.8163 26.5025C18.0506 26.7322 18.3657 26.8606 18.6937 26.86C19.0217 26.8594 19.3363 26.7299 19.5698 26.4995C19.8032 26.269 19.9366 25.956 19.9414 25.6281C19.9461 25.3001 19.8218 24.9834 19.5951 24.7463C19.1203 24.2743 18.6348 23.8134 18.1388 23.3638L18.1063 23.3337C17.6081 22.8805 17.118 22.4183 16.6363 21.9475C16.1619 21.486 15.716 20.9959 15.3013 20.48L15.0901 20.1513C14.8708 19.8042 14.655 19.455 14.4426 19.1038C14.2241 18.5697 14.1362 17.9911 14.1863 17.4163C14.2614 17.2001 14.4066 17.0153 14.5988 16.8912C15.1551 16.615 15.5576 16.6563 15.8351 16.7513C16.1576 16.8613 16.3776 17.0725 16.4463 17.1625L16.4651 17.15L16.6126 17.4C17.4318 18.7758 18.3136 20.1135 19.2551 21.4088C19.4541 21.6669 19.7462 21.8371 20.0689 21.883C20.3917 21.929 20.7196 21.847 20.9828 21.6546C21.2459 21.4622 21.4235 21.1746 21.4777 20.8531C21.5318 20.5316 21.4582 20.2017 21.2726 19.9338C20.3788 18.703 19.5417 17.4321 18.7638 16.125C18.6055 15.8567 18.4513 15.59 18.3013 15.325L18.1151 14.9088C17.7969 14.1769 17.4902 13.4402 17.1951 12.6988C16.9451 12.0725 17.0451 11.6737 17.1788 11.4137C17.3388 11.1087 17.6051 10.8988 17.7663 10.8138C18.1988 10.62 18.5963 10.6512 18.9238 10.78C19.0951 10.8475 19.2401 10.94 19.3476 11.035C19.4037 11.0846 19.454 11.1404 19.4976 11.2013L19.5013 11.21L19.5038 11.2137L19.5051 11.2175L19.9288 12.1475L20.5451 13.5038Z" fill="#5856A8"/>
</svg>
